<mxfile host="app.diagrams.net" agent="Mozilla/5.0 (Windows NT 10.0; Win64; x64; rv:132.0) Gecko/20100101 Firefox/132.0" version="24.8.6">
  <diagram name="Страница — 1" id="B7BoDMwRP4bzp1QEvwFb">
    <mxGraphModel dx="407" dy="442" grid="0" gridSize="10" guides="1" tooltips="1" connect="1" arrows="1" fold="1" page="1" pageScale="1" pageWidth="827" pageHeight="1169" math="0" shadow="0">
      <root>
        <mxCell id="0" />
        <mxCell id="1" parent="0" />
        <mxCell id="OIhLDXdUyic4KCReRbb--121" value="" style="rounded=0;whiteSpace=wrap;html=1;" vertex="1" parent="1">
          <mxGeometry x="240" y="350" width="210" height="220" as="geometry" />
        </mxCell>
        <mxCell id="OIhLDXdUyic4KCReRbb--127" value="5" style="rounded=0;whiteSpace=wrap;html=1;" vertex="1" parent="1">
          <mxGeometry x="298.75" y="530" width="92.5" height="30" as="geometry" />
        </mxCell>
        <mxCell id="OIhLDXdUyic4KCReRbb--128" value="4" style="rounded=0;whiteSpace=wrap;html=1;" vertex="1" parent="1">
          <mxGeometry x="250" y="500" width="190" height="20" as="geometry" />
        </mxCell>
        <mxCell id="OIhLDXdUyic4KCReRbb--130" value="1" style="rounded=0;whiteSpace=wrap;html=1;" vertex="1" parent="1">
          <mxGeometry x="310" y="360" width="70" height="70" as="geometry" />
        </mxCell>
        <mxCell id="OIhLDXdUyic4KCReRbb--131" value="3" style="rounded=0;whiteSpace=wrap;html=1;" vertex="1" parent="1">
          <mxGeometry x="250" y="470" width="190" height="20" as="geometry" />
        </mxCell>
        <mxCell id="OIhLDXdUyic4KCReRbb--132" value="2" style="rounded=0;whiteSpace=wrap;html=1;" vertex="1" parent="1">
          <mxGeometry x="295" y="440" width="100" height="20" as="geometry" />
        </mxCell>
      </root>
    </mxGraphModel>
  </diagram>
</mxfile>
